<svg width="650" height="133" viewBox="0 0 650 133" fill="none" xmlns="http://www.w3.org/2000/svg">
<rect width="650" height="133" fill="#E5E5E5"/>
<rect width="649.125" height="132.983" fill="#083183"/>
<path fill-rule="evenodd" clip-rule="evenodd" d="M143.312 113.672H144.432L145.718 117.142L147.005 113.672H148.125V118.091H147.341V114.679H147.285L146.055 118.093H145.382L144.152 114.679H144.095V118.093H143.312V113.672V113.672ZM140.738 114.343H139.451V113.672H142.864V114.343H141.521V118.093H140.738V114.343V114.343ZM76.9879 124.298C76.9879 124.838 77.6079 124.841 77.7199 124.298C78.5429 120.3 79.7959 117.636 81.7529 115.048L77.3529 115.05C77.305 115.05 77.2576 115.06 77.2133 115.078C77.169 115.096 77.1288 115.123 77.0949 115.157C77.061 115.191 77.034 115.231 77.0157 115.275C76.9973 115.319 76.9879 115.367 76.9879 115.414V124.298ZM109.308 68.8125C109.128 68.2275 108.621 68.1895 108.626 68.8015C108.676 74.5805 107.014 79.5465 96.4659 90.0955L88.1219 98.4315C84.3249 102.229 80.9119 105.697 78.8929 109.162H87.1329L88.1069 108.187L100.077 96.2045C110.047 86.2345 111.437 75.6905 109.308 68.8125V68.8125ZM98.1209 104.062L88.1219 114.069C82.0699 120.122 76.9879 125.336 76.9879 131.038L76.9939 132.628C76.9939 133.058 77.5299 133.126 77.6949 132.675C79.5629 127.569 85.8069 122.12 97.2589 124.052C97.2589 124.052 147.149 132.672 147.569 132.71C148.056 132.753 148.297 132.272 147.983 131.898C147.794 131.674 124.763 108.645 124.763 108.645L98.1209 104.062V104.062ZM62.0289 115.049C61.9323 115.049 61.8398 115.01 61.7715 114.942C61.7032 114.874 61.6649 114.781 61.6649 114.685V109.522C61.6649 109.321 61.8279 109.159 62.0289 109.159L70.7609 109.16C70.8574 109.16 70.95 109.122 71.0183 109.054C71.0865 108.986 71.1249 108.893 71.1249 108.797C71.1019 104.16 67.6059 101.009 53.6019 103.447L23.3619 108.645C23.3619 108.645 0.32989 131.674 0.14189 131.898C-0.17311 132.272 0.0678905 132.752 0.554891 132.708C0.974891 132.672 50.8649 124.052 50.8649 124.052C62.3169 122.12 68.5609 127.569 70.4289 132.675C70.5939 133.125 71.1309 133.059 71.1309 132.628L71.1319 115.412C71.1319 115.365 71.1225 115.317 71.1042 115.273C71.0859 115.229 71.0591 115.189 71.0253 115.155C70.9915 115.121 70.9514 115.095 70.9072 115.076C70.863 115.058 70.8157 115.049 70.7679 115.049H62.0289V115.049ZM48.0889 42.8965C38.1199 52.8655 36.7299 63.4105 38.8589 70.2885C39.0389 70.8735 39.5449 70.9115 39.5399 70.2985C39.4899 64.5205 41.1519 59.5535 51.7009 49.0055L74.4409 26.2725C80.4929 20.2195 85.5749 15.0045 85.5749 9.3015V0.4065C85.5749 -0.1345 84.9549 -0.1365 84.8429 0.4065C83.3469 7.6655 80.4429 10.5295 74.4559 16.5165L48.0889 42.8975V42.8965ZM85.5969 24.9235V15.9675C85.5969 15.4265 84.9769 15.4245 84.8649 15.9675C83.3689 23.2275 80.4729 26.1365 74.4849 32.1245L50.6019 55.9875C39.0119 67.5775 37.0059 78.7955 42.9019 86.0035C43.2939 86.4835 43.7169 86.1955 43.4599 85.6155C39.5629 76.7975 48.9099 67.4485 53.3579 62.9985L74.4619 41.8935C80.5149 35.8415 85.5969 30.6265 85.5969 24.9235V24.9235ZM51.2569 70.9675C39.6669 82.5595 44.9969 93.7545 51.7569 96.8355C52.3499 97.1055 52.5849 96.6245 52.1319 96.2315C46.7099 91.5355 48.3559 83.6345 55.1739 76.8175L74.4389 57.5525C80.4919 51.5005 85.5729 46.2855 85.5729 40.5825V31.6875C85.5729 31.1465 84.9529 31.1445 84.8409 31.6875C83.3459 38.9465 80.4479 41.7975 74.4609 47.7865L51.2579 70.9665L51.2569 70.9675ZM76.9669 99.7805V108.735C76.9669 109.275 77.5869 109.278 77.6979 108.735C79.1939 101.475 82.0899 98.5675 88.0779 92.5795L97.5639 83.1135C109.155 71.5235 111.16 60.3055 105.265 53.0975C104.872 52.6175 104.449 52.9045 104.706 53.4845C108.603 62.3025 99.2569 71.6525 94.8079 76.1025L88.1009 82.8095C82.0479 88.8625 76.9659 94.0775 76.9659 99.7795L76.9669 99.7805ZM88.1039 76.9175C82.1159 82.9055 79.2179 85.7575 77.7239 93.0165C77.6109 93.5595 76.9909 93.5565 76.9909 93.0165V84.1215C76.9909 78.4185 82.0719 73.2035 88.1249 67.1505L92.9919 62.2835C99.8099 55.4655 101.456 47.5655 96.0339 42.8685C95.5809 42.4765 95.8159 41.9945 96.4099 42.2655C103.17 45.3455 108.5 56.5415 96.9099 68.1325L88.1039 76.9175V76.9175Z" fill="white"/>
<path d="M191.151 47.7788V53.4917H172.23V47.7788H191.151ZM174.623 17.9448V53.4917H167.299V17.9448H174.623ZM188.685 32.4223V37.9887H172.23V32.4223H188.685ZM191.127 17.9448V23.6821H172.23V17.9448H191.127ZM202.016 32.5444V53.4917H194.96V27.0756H201.576L202.016 32.5444ZM201.039 39.3559H199.086C199.086 37.5167 199.306 35.824 199.745 34.2778C200.201 32.7153 200.86 31.3644 201.723 30.2251C202.601 29.0695 203.684 28.1743 204.97 27.5395C206.255 26.9047 207.745 26.5874 209.437 26.5874C210.609 26.5874 211.683 26.7664 212.66 27.1245C213.637 27.4663 214.475 28.0115 215.175 28.7602C215.891 29.4926 216.444 30.4529 216.835 31.6411C217.225 32.813 217.421 34.2208 217.421 35.8647V53.4917H210.39V36.646C210.39 35.4415 210.227 34.5138 209.901 33.8628C209.576 33.2117 209.112 32.756 208.51 32.4956C207.924 32.2352 207.216 32.1049 206.386 32.1049C205.474 32.1049 204.677 32.2921 203.993 32.6665C203.326 33.0408 202.772 33.5616 202.333 34.229C201.893 34.88 201.568 35.645 201.356 36.5239C201.145 37.4028 201.039 38.3468 201.039 39.3559ZM216.762 38.5503L214.247 38.8676C214.247 37.1424 214.459 35.5392 214.882 34.0581C215.321 32.5769 215.964 31.2749 216.81 30.1518C217.673 29.0288 218.739 28.158 220.009 27.5395C221.278 26.9047 222.743 26.5874 224.403 26.5874C225.673 26.5874 226.828 26.7745 227.87 27.1489C228.912 27.507 229.799 28.0848 230.531 28.8823C231.28 29.6635 231.85 30.6889 232.24 31.9585C232.647 33.228 232.85 34.7824 232.85 36.6215V53.4917H225.795V36.6215C225.795 35.4008 225.632 34.4731 225.307 33.8383C224.997 33.1873 224.542 32.7397 223.939 32.4956C223.353 32.2352 222.654 32.1049 221.84 32.1049C220.993 32.1049 220.253 32.2758 219.618 32.6176C218.983 32.9432 218.454 33.3989 218.031 33.9848C217.608 34.5708 217.291 35.2544 217.079 36.0356C216.867 36.8006 216.762 37.6388 216.762 38.5503ZM245.326 32.5444V53.4917H238.27V27.0756H244.887L245.326 32.5444ZM244.35 39.3559H242.396C242.396 37.5167 242.616 35.824 243.056 34.2778C243.511 32.7153 244.17 31.3644 245.033 30.2251C245.912 29.0695 246.994 28.1743 248.28 27.5395C249.566 26.9047 251.055 26.5874 252.748 26.5874C253.92 26.5874 254.994 26.7664 255.971 27.1245C256.947 27.4663 257.785 28.0115 258.485 28.7602C259.201 29.4926 259.755 30.4529 260.145 31.6411C260.536 32.813 260.731 34.2208 260.731 35.8647V53.4917H253.7V36.646C253.7 35.4415 253.537 34.5138 253.212 33.8628C252.886 33.2117 252.422 32.756 251.82 32.4956C251.234 32.2352 250.526 32.1049 249.696 32.1049C248.785 32.1049 247.987 32.2921 247.304 32.6665C246.636 33.0408 246.083 33.5616 245.643 34.229C245.204 34.88 244.878 35.645 244.667 36.5239C244.455 37.4028 244.35 38.3468 244.35 39.3559ZM260.072 38.5503L257.558 38.8676C257.558 37.1424 257.769 35.5392 258.192 34.0581C258.632 32.5769 259.275 31.2749 260.121 30.1518C260.984 29.0288 262.05 28.158 263.319 27.5395C264.589 26.9047 266.054 26.5874 267.714 26.5874C268.983 26.5874 270.139 26.7745 271.181 27.1489C272.222 27.507 273.109 28.0848 273.842 28.8823C274.59 29.6635 275.16 30.6889 275.551 31.9585C275.958 33.228 276.161 34.7824 276.161 36.6215V53.4917H269.105V36.6215C269.105 35.4008 268.943 34.4731 268.617 33.8383C268.308 33.1873 267.852 32.7397 267.25 32.4956C266.664 32.2352 265.964 32.1049 265.15 32.1049C264.304 32.1049 263.563 32.2758 262.929 32.6176C262.294 32.9432 261.765 33.3989 261.342 33.9848C260.919 34.5708 260.601 35.2544 260.39 36.0356C260.178 36.8006 260.072 37.6388 260.072 38.5503ZM295.863 47.5346V35.7671C295.863 34.9207 295.725 34.1964 295.448 33.5942C295.171 32.9757 294.74 32.4956 294.154 32.1538C293.585 31.812 292.844 31.6411 291.933 31.6411C291.151 31.6411 290.476 31.7794 289.906 32.0561C289.336 32.3165 288.897 32.699 288.588 33.2036C288.279 33.6919 288.124 34.2697 288.124 34.937H281.093C281.093 33.8139 281.353 32.7478 281.874 31.7387C282.395 30.7296 283.152 29.8426 284.144 29.0776C285.137 28.2963 286.317 27.686 287.684 27.2465C289.068 26.8071 290.614 26.5874 292.323 26.5874C294.374 26.5874 296.197 26.9292 297.792 27.6128C299.387 28.2963 300.64 29.3217 301.552 30.6889C302.479 32.0561 302.943 33.7651 302.943 35.8159V47.1196C302.943 48.5682 303.033 49.7563 303.212 50.684C303.391 51.5955 303.651 52.393 303.993 53.0766V53.4917H296.889C296.547 52.7755 296.286 51.8803 296.107 50.8061C295.945 49.7156 295.863 48.6251 295.863 47.5346ZM296.791 37.4028L296.84 41.3823H292.909C291.981 41.3823 291.176 41.4881 290.492 41.6997C289.808 41.9113 289.247 42.2124 288.808 42.603C288.368 42.9773 288.043 43.4168 287.831 43.9213C287.636 44.4259 287.538 44.9793 287.538 45.5815C287.538 46.1837 287.676 46.729 287.953 47.2172C288.23 47.6893 288.628 48.0636 289.149 48.3403C289.67 48.6007 290.28 48.7309 290.98 48.7309C292.038 48.7309 292.958 48.5193 293.739 48.0962C294.52 47.673 295.123 47.1521 295.546 46.5337C295.985 45.9152 296.213 45.3292 296.229 44.7758L298.085 47.7544C297.824 48.4217 297.466 49.1134 297.011 49.8296C296.571 50.5457 296.01 51.2212 295.326 51.8559C294.642 52.4744 293.821 52.9871 292.86 53.394C291.9 53.7846 290.761 53.9799 289.442 53.9799C287.766 53.9799 286.244 53.6463 284.877 52.979C283.526 52.2954 282.452 51.3595 281.654 50.1713C280.873 48.9669 280.482 47.5997 280.482 46.0698C280.482 44.6863 280.743 43.4575 281.264 42.3833C281.784 41.309 282.549 40.4057 283.558 39.6733C284.584 38.9246 285.862 38.3631 287.391 37.9887C288.921 37.5981 290.696 37.4028 292.714 37.4028H296.791ZM322.645 46.1919C322.645 45.6873 322.499 45.2316 322.206 44.8247C321.913 44.4178 321.368 44.0434 320.57 43.7016C319.789 43.3435 318.658 43.018 317.177 42.7251C315.842 42.4321 314.597 42.0659 313.441 41.6264C312.302 41.1707 311.309 40.6255 310.463 39.9907C309.633 39.3559 308.982 38.6072 308.51 37.7446C308.038 36.8657 307.802 35.8647 307.802 34.7417C307.802 33.6349 308.038 32.5932 308.51 31.6167C308.998 30.6401 309.69 29.7775 310.585 29.0288C311.496 28.2638 312.603 27.6697 313.905 27.2465C315.224 26.8071 316.705 26.5874 318.349 26.5874C320.643 26.5874 322.613 26.9536 324.257 27.686C325.917 28.4184 327.186 29.4275 328.065 30.7133C328.961 31.9829 329.408 33.4314 329.408 35.059H322.377C322.377 34.3755 322.23 33.7651 321.937 33.228C321.661 32.6746 321.221 32.2433 320.619 31.934C320.033 31.6085 319.268 31.4458 318.324 31.4458C317.543 31.4458 316.867 31.5841 316.298 31.8608C315.728 32.1212 315.289 32.4793 314.979 32.935C314.686 33.3745 314.54 33.8628 314.54 34.3999C314.54 34.8068 314.621 35.173 314.784 35.4985C314.963 35.8077 315.248 36.0926 315.639 36.353C316.029 36.6134 316.534 36.8575 317.152 37.0854C317.787 37.297 318.568 37.4923 319.496 37.6713C321.4 38.062 323.101 38.5747 324.599 39.2094C326.096 39.8279 327.284 40.6743 328.163 41.7485C329.042 42.8064 329.481 44.198 329.481 45.9233C329.481 47.0952 329.221 48.1694 328.7 49.146C328.179 50.1225 327.431 50.977 326.454 51.7094C325.477 52.4256 324.306 52.9871 322.938 53.394C321.587 53.7846 320.066 53.9799 318.373 53.9799C315.915 53.9799 313.832 53.5405 312.123 52.6616C310.43 51.7827 309.144 50.6678 308.266 49.3169C307.403 47.9497 306.972 46.5499 306.972 45.1176H313.637C313.669 46.0779 313.913 46.851 314.369 47.437C314.841 48.0229 315.435 48.4461 316.151 48.7065C316.884 48.9669 317.673 49.0971 318.519 49.0971C319.431 49.0971 320.188 48.9751 320.79 48.7309C321.392 48.4705 321.848 48.1287 322.157 47.7055C322.483 47.2661 322.645 46.7615 322.645 46.1919ZM349.647 47.7299V15.9917H356.727V53.4917H350.355L349.647 47.7299ZM332.948 40.601V40.0883C332.948 38.0701 333.176 36.2391 333.632 34.5952C334.087 32.935 334.755 31.5109 335.634 30.3227C336.513 29.1346 337.595 28.215 338.881 27.5639C340.167 26.9129 341.631 26.5874 343.275 26.5874C344.822 26.5874 346.172 26.9129 347.328 27.5639C348.5 28.215 349.493 29.1427 350.307 30.3471C351.137 31.5353 351.804 32.9432 352.308 34.5708C352.813 36.1821 353.179 37.948 353.407 39.8686V40.9917C353.179 42.8309 352.813 44.5398 352.308 46.1186C351.804 47.6974 351.137 49.0809 350.307 50.269C349.493 51.4409 348.5 52.3523 347.328 53.0034C346.156 53.6544 344.789 53.9799 343.226 53.9799C341.583 53.9799 340.118 53.6463 338.832 52.979C337.562 52.3116 336.488 51.3758 335.609 50.1713C334.747 48.9669 334.087 47.5509 333.632 45.9233C333.176 44.2957 332.948 42.5216 332.948 40.601ZM339.979 40.0883V40.601C339.979 41.6915 340.061 42.7088 340.224 43.6528C340.403 44.5968 340.687 45.435 341.078 46.1674C341.485 46.8836 342.006 47.4451 342.641 47.852C343.292 48.2426 344.081 48.438 345.009 48.438C346.213 48.438 347.206 48.1694 347.987 47.6323C348.768 47.0789 349.363 46.3221 349.769 45.3618C350.193 44.4015 350.437 43.2947 350.502 42.0415V38.8432C350.453 37.8178 350.307 36.8982 350.062 36.0844C349.835 35.2544 349.493 34.5463 349.037 33.9604C348.598 33.3745 348.044 32.9187 347.377 32.5932C346.726 32.2677 345.953 32.1049 345.058 32.1049C344.146 32.1049 343.365 32.3165 342.714 32.7397C342.063 33.1466 341.534 33.7081 341.127 34.4243C340.736 35.1404 340.443 35.9868 340.248 36.9633C340.069 37.9236 339.979 38.9653 339.979 40.0883ZM376.478 47.5346V35.7671C376.478 34.9207 376.34 34.1964 376.063 33.5942C375.787 32.9757 375.355 32.4956 374.769 32.1538C374.2 31.812 373.459 31.6411 372.548 31.6411C371.766 31.6411 371.091 31.7794 370.521 32.0561C369.952 32.3165 369.512 32.699 369.203 33.2036C368.894 33.6919 368.739 34.2697 368.739 34.937H361.708C361.708 33.8139 361.968 32.7478 362.489 31.7387C363.01 30.7296 363.767 29.8426 364.76 29.0776C365.752 28.2963 366.933 27.686 368.3 27.2465C369.683 26.8071 371.229 26.5874 372.938 26.5874C374.989 26.5874 376.812 26.9292 378.407 27.6128C380.002 28.2963 381.255 29.3217 382.167 30.6889C383.095 32.0561 383.558 33.7651 383.558 35.8159V47.1196C383.558 48.5682 383.648 49.7563 383.827 50.684C384.006 51.5955 384.266 52.393 384.608 53.0766V53.4917H377.504C377.162 52.7755 376.902 51.8803 376.723 50.8061C376.56 49.7156 376.478 48.6251 376.478 47.5346ZM377.406 37.4028L377.455 41.3823H373.524C372.597 41.3823 371.791 41.4881 371.107 41.6997C370.424 41.9113 369.862 42.2124 369.423 42.603C368.983 42.9773 368.658 43.4168 368.446 43.9213C368.251 44.4259 368.153 44.9793 368.153 45.5815C368.153 46.1837 368.292 46.729 368.568 47.2172C368.845 47.6893 369.244 48.0636 369.765 48.3403C370.285 48.6007 370.896 48.7309 371.596 48.7309C372.654 48.7309 373.573 48.5193 374.354 48.0962C375.136 47.673 375.738 47.1521 376.161 46.5337C376.6 45.9152 376.828 45.3292 376.845 44.7758L378.7 47.7544C378.44 48.4217 378.082 49.1134 377.626 49.8296C377.186 50.5457 376.625 51.2212 375.941 51.8559C375.258 52.4744 374.436 52.9871 373.475 53.394C372.515 53.7846 371.376 53.9799 370.058 53.9799C368.381 53.9799 366.859 53.6463 365.492 52.979C364.141 52.2954 363.067 51.3595 362.269 50.1713C361.488 48.9669 361.098 47.5997 361.098 46.0698C361.098 44.6863 361.358 43.4575 361.879 42.3833C362.4 41.309 363.165 40.4057 364.174 39.6733C365.199 38.9246 366.477 38.3631 368.007 37.9887C369.537 37.5981 371.311 37.4028 373.329 37.4028H377.406ZM396.4 15.9917V53.4917H389.345V15.9917H396.4ZM414.369 53.9799C412.318 53.9799 410.479 53.6544 408.851 53.0034C407.224 52.3361 405.84 51.4165 404.701 50.2446C403.578 49.0727 402.715 47.7137 402.113 46.1674C401.511 44.6049 401.21 42.9448 401.21 41.187V40.2104C401.21 38.2085 401.495 36.3774 402.064 34.7172C402.634 33.0571 403.448 31.6167 404.506 30.396C405.58 29.1753 406.882 28.2394 408.412 27.5883C409.942 26.921 411.667 26.5874 413.588 26.5874C415.46 26.5874 417.12 26.8966 418.568 27.5151C420.017 28.1336 421.229 29.0125 422.206 30.1518C423.199 31.2911 423.947 32.6583 424.452 34.2534C424.957 35.8322 425.209 37.59 425.209 39.5268V42.4565H404.213V37.769H418.3V37.2319C418.3 36.2553 418.121 35.3846 417.763 34.6196C417.421 33.8383 416.9 33.2199 416.2 32.7641C415.5 32.3084 414.605 32.0805 413.515 32.0805C412.587 32.0805 411.789 32.284 411.122 32.6909C410.455 33.0978 409.909 33.6674 409.486 34.3999C409.079 35.1323 408.77 35.9949 408.558 36.9878C408.363 37.9643 408.266 39.0385 408.266 40.2104V41.187C408.266 42.2449 408.412 43.2215 408.705 44.1167C409.014 45.0118 409.446 45.785 409.999 46.436C410.569 47.087 411.252 47.5916 412.05 47.9497C412.863 48.3077 413.783 48.4868 414.808 48.4868C416.078 48.4868 417.258 48.2426 418.349 47.7544C419.455 47.2498 420.407 46.493 421.205 45.4838L424.623 49.1948C424.07 49.9923 423.313 50.7573 422.352 51.4897C421.408 52.2221 420.269 52.8243 418.934 53.2963C417.6 53.7521 416.078 53.9799 414.369 53.9799ZM460.609 44.1899C460.609 43.5551 460.512 42.9855 460.316 42.4809C460.137 41.9601 459.795 41.4881 459.291 41.0649C458.786 40.6255 458.078 40.1941 457.167 39.771C456.255 39.3478 455.075 38.9083 453.627 38.4526C452.016 37.9318 450.486 37.3458 449.037 36.6948C447.605 36.0437 446.335 35.2869 445.228 34.4243C444.138 33.5454 443.275 32.5281 442.641 31.3725C442.022 30.2169 441.713 28.8741 441.713 27.3442C441.713 25.8631 442.038 24.5203 442.689 23.3159C443.34 22.0952 444.252 21.0535 445.424 20.1909C446.596 19.312 447.979 18.6365 449.574 18.1645C451.185 17.6925 452.951 17.4565 454.872 17.4565C457.492 17.4565 459.779 17.9285 461.732 18.8725C463.685 19.8165 465.199 21.1105 466.273 22.7544C467.364 24.3982 467.909 26.2781 467.909 28.394H460.634C460.634 27.3523 460.414 26.4409 459.975 25.6596C459.551 24.8621 458.9 24.2355 458.021 23.7797C457.159 23.324 456.068 23.0962 454.75 23.0962C453.48 23.0962 452.422 23.2915 451.576 23.6821C450.73 24.0564 450.095 24.5691 449.672 25.2202C449.249 25.8549 449.037 26.5711 449.037 27.3686C449.037 27.9708 449.183 28.5161 449.476 29.0044C449.786 29.4926 450.241 29.9484 450.844 30.3715C451.446 30.7947 452.186 31.1935 453.065 31.5678C453.944 31.9422 454.961 32.3084 456.117 32.6665C458.054 33.2524 459.755 33.9116 461.22 34.644C462.701 35.3764 463.938 36.1984 464.931 37.1098C465.923 38.0213 466.672 39.0548 467.177 40.2104C467.681 41.366 467.933 42.6762 467.933 44.1411C467.933 45.6873 467.632 47.0708 467.03 48.2915C466.428 49.5122 465.557 50.5457 464.418 51.3921C463.279 52.2384 461.919 52.8813 460.341 53.3208C458.762 53.7602 456.996 53.9799 455.043 53.9799C453.285 53.9799 451.552 53.7521 449.843 53.2963C448.134 52.8243 446.579 52.1163 445.18 51.1723C443.796 50.2283 442.689 49.0239 441.859 47.559C441.029 46.0942 440.614 44.3608 440.614 42.3588H447.963C447.963 43.4656 448.134 44.4015 448.475 45.1665C448.817 45.9314 449.297 46.5499 449.916 47.0219C450.551 47.4939 451.299 47.8357 452.162 48.0473C453.041 48.2589 454.001 48.3647 455.043 48.3647C456.312 48.3647 457.354 48.1857 458.168 47.8276C458.998 47.4695 459.608 46.9731 459.999 46.3383C460.406 45.7036 460.609 44.9874 460.609 44.1899ZM484.633 53.9799C482.582 53.9799 480.743 53.6544 479.115 53.0034C477.488 52.3361 476.104 51.4165 474.965 50.2446C473.842 49.0727 472.979 47.7137 472.377 46.1674C471.775 44.6049 471.474 42.9448 471.474 41.187V40.2104C471.474 38.2085 471.758 36.3774 472.328 34.7172C472.898 33.0571 473.711 31.6167 474.769 30.396C475.844 29.1753 477.146 28.2394 478.676 27.5883C480.206 26.921 481.931 26.5874 483.851 26.5874C485.723 26.5874 487.383 26.8966 488.832 27.5151C490.28 28.1336 491.493 29.0125 492.47 30.1518C493.462 31.2911 494.211 32.6583 494.716 34.2534C495.22 35.8322 495.473 37.59 495.473 39.5268V42.4565H474.476V37.769H488.563V37.2319C488.563 36.2553 488.384 35.3846 488.026 34.6196C487.684 33.8383 487.164 33.2199 486.464 32.7641C485.764 32.3084 484.869 32.0805 483.778 32.0805C482.85 32.0805 482.053 32.284 481.386 32.6909C480.718 33.0978 480.173 33.6674 479.75 34.3999C479.343 35.1323 479.034 35.9949 478.822 36.9878C478.627 37.9643 478.529 39.0385 478.529 40.2104V41.187C478.529 42.2449 478.676 43.2215 478.969 44.1167C479.278 45.0118 479.709 45.785 480.263 46.436C480.832 47.087 481.516 47.5916 482.313 47.9497C483.127 48.3077 484.047 48.4868 485.072 48.4868C486.342 48.4868 487.522 48.2426 488.612 47.7544C489.719 47.2498 490.671 46.493 491.469 45.4838L494.887 49.1948C494.333 49.9923 493.576 50.7573 492.616 51.4897C491.672 52.2221 490.533 52.8243 489.198 53.2963C487.863 53.7521 486.342 53.9799 484.633 53.9799ZM508.119 48.3647L513.978 27.0756H521.327L512.416 53.4917H507.973L508.119 48.3647ZM504.091 27.0756L509.975 48.3891L510.097 53.4917H505.629L496.718 27.0756H504.091ZM536.293 53.9799C534.242 53.9799 532.403 53.6544 530.775 53.0034C529.148 52.3361 527.764 51.4165 526.625 50.2446C525.502 49.0727 524.639 47.7137 524.037 46.1674C523.435 44.6049 523.134 42.9448 523.134 41.187V40.2104C523.134 38.2085 523.419 36.3774 523.988 34.7172C524.558 33.0571 525.372 31.6167 526.43 30.396C527.504 29.1753 528.806 28.2394 530.336 27.5883C531.866 26.921 533.591 26.5874 535.512 26.5874C537.383 26.5874 539.044 26.8966 540.492 27.5151C541.941 28.1336 543.153 29.0125 544.13 30.1518C545.123 31.2911 545.871 32.6583 546.376 34.2534C546.88 35.8322 547.133 37.59 547.133 39.5268V42.4565H526.137V37.769H540.224V37.2319C540.224 36.2553 540.044 35.3846 539.686 34.6196C539.345 33.8383 538.824 33.2199 538.124 32.7641C537.424 32.3084 536.529 32.0805 535.438 32.0805C534.511 32.0805 533.713 32.284 533.046 32.6909C532.378 33.0978 531.833 33.6674 531.41 34.3999C531.003 35.1323 530.694 35.9949 530.482 36.9878C530.287 37.9643 530.189 39.0385 530.189 40.2104V41.187C530.189 42.2449 530.336 43.2215 530.629 44.1167C530.938 45.0118 531.369 45.785 531.923 46.436C532.492 47.087 533.176 47.5916 533.974 47.9497C534.787 48.3077 535.707 48.4868 536.732 48.4868C538.002 48.4868 539.182 48.2426 540.272 47.7544C541.379 47.2498 542.331 46.493 543.129 45.4838L546.547 49.1948C545.993 49.9923 545.237 50.7573 544.276 51.4897C543.332 52.2221 542.193 52.8243 540.858 53.2963C539.524 53.7521 538.002 53.9799 536.293 53.9799ZM558.021 32.7153V53.4917H550.99V27.0756H557.582L558.021 32.7153ZM556.996 39.3559H555.092C555.092 37.4028 555.344 35.645 555.849 34.0825C556.353 32.5037 557.061 31.1609 557.973 30.0542C558.884 28.9311 559.966 28.0766 561.22 27.4907C562.489 26.8885 563.905 26.5874 565.468 26.5874C566.705 26.5874 567.836 26.7664 568.861 27.1245C569.887 27.4825 570.766 28.0522 571.498 28.8335C572.247 29.6147 572.816 30.6482 573.207 31.934C573.614 33.2199 573.817 34.7905 573.817 36.646V53.4917H566.737V36.6215C566.737 35.4497 566.574 34.5382 566.249 33.8872C565.923 33.2361 565.443 32.7804 564.808 32.52C564.19 32.2433 563.425 32.1049 562.514 32.1049C561.57 32.1049 560.748 32.2921 560.048 32.6665C559.364 33.0408 558.794 33.5616 558.339 34.229C557.899 34.88 557.566 35.645 557.338 36.5239C557.11 37.4028 556.996 38.3468 556.996 39.3559ZM592.103 27.0756V32.0561H576.723V27.0756H592.103ZM580.531 20.5571H587.562V45.5327C587.562 46.2977 587.66 46.8836 587.855 47.2905C588.067 47.6974 588.376 47.9822 588.783 48.145C589.19 48.2915 589.703 48.3647 590.321 48.3647C590.761 48.3647 591.151 48.3484 591.493 48.3159C591.851 48.2671 592.152 48.2182 592.396 48.1694L592.421 53.3452C591.819 53.5405 591.168 53.6951 590.468 53.809C589.768 53.923 588.995 53.9799 588.148 53.9799C586.602 53.9799 585.251 53.7277 584.096 53.2231C582.956 52.7023 582.077 51.8722 581.459 50.7329C580.84 49.5935 580.531 48.0962 580.531 46.2407V20.5571ZM602.968 15.9917V53.4917H595.936V15.9917H602.968ZM601.967 39.3559H600.038C600.054 37.5167 600.298 35.824 600.77 34.2778C601.242 32.7153 601.918 31.3644 602.797 30.2251C603.676 29.0695 604.725 28.1743 605.946 27.5395C607.183 26.9047 608.55 26.5874 610.048 26.5874C611.35 26.5874 612.53 26.7745 613.588 27.1489C614.662 27.507 615.582 28.0929 616.347 28.9067C617.128 29.7042 617.73 30.754 618.153 32.0561C618.576 33.3582 618.788 34.937 618.788 36.7924V53.4917H611.708V36.7436C611.708 35.5717 611.537 34.6521 611.195 33.9848C610.87 33.3012 610.39 32.8211 609.755 32.5444C609.136 32.2514 608.371 32.1049 607.46 32.1049C606.451 32.1049 605.588 32.2921 604.872 32.6665C604.172 33.0408 603.611 33.5616 603.187 34.229C602.764 34.88 602.455 35.645 602.26 36.5239C602.064 37.4028 601.967 38.3468 601.967 39.3559ZM638.002 35.4741V40.9917H624.208V35.4741H638.002ZM178.212 113.492H170.473L170.521 107.779H178.212C180.132 107.779 181.752 107.347 183.07 106.485C184.389 105.606 185.381 104.328 186.049 102.652C186.732 100.975 187.074 98.949 187.074 96.5727V94.8393C187.074 93.0164 186.879 91.4132 186.488 90.0297C186.114 88.6463 185.552 87.4825 184.804 86.5385C184.055 85.5945 183.135 84.8865 182.045 84.4145C180.954 83.9262 179.701 83.6821 178.285 83.6821H170.326V77.9448H178.285C180.661 77.9448 182.834 78.3517 184.804 79.1655C186.789 79.963 188.506 81.1105 189.955 82.6079C191.404 84.1053 192.518 85.8956 193.3 87.979C194.097 90.046 194.496 92.3491 194.496 94.8881V96.5727C194.496 99.0955 194.097 101.399 193.3 103.482C192.518 105.565 191.404 107.356 189.955 108.853C188.523 110.334 186.806 111.482 184.804 112.295C182.818 113.093 180.621 113.492 178.212 113.492ZM174.623 77.9448V113.492H167.299V77.9448H174.623ZM213.637 107.535V95.7671C213.637 94.9207 213.498 94.1964 213.222 93.5942C212.945 92.9757 212.514 92.4956 211.928 92.1538C211.358 91.812 210.617 91.6411 209.706 91.6411C208.925 91.6411 208.249 91.7794 207.68 92.0561C207.11 92.3165 206.67 92.699 206.361 93.2036C206.052 93.6919 205.897 94.2697 205.897 94.937H198.866C198.866 93.8139 199.127 92.7478 199.647 91.7387C200.168 90.7296 200.925 89.8426 201.918 89.0776C202.911 88.2963 204.091 87.686 205.458 87.2465C206.841 86.8071 208.388 86.5874 210.097 86.5874C212.147 86.5874 213.97 86.9292 215.565 87.6128C217.16 88.2963 218.414 89.3217 219.325 90.6889C220.253 92.0561 220.717 93.7651 220.717 95.8159V107.12C220.717 108.568 220.806 109.756 220.985 110.684C221.164 111.596 221.425 112.393 221.766 113.077V113.492H214.662C214.32 112.776 214.06 111.88 213.881 110.806C213.718 109.716 213.637 108.625 213.637 107.535ZM214.564 97.4028L214.613 101.382H210.683C209.755 101.382 208.949 101.488 208.266 101.7C207.582 101.911 207.02 102.212 206.581 102.603C206.141 102.977 205.816 103.417 205.604 103.921C205.409 104.426 205.311 104.979 205.311 105.582C205.311 106.184 205.45 106.729 205.726 107.217C206.003 107.689 206.402 108.064 206.923 108.34C207.444 108.601 208.054 108.731 208.754 108.731C209.812 108.731 210.731 108.519 211.513 108.096C212.294 107.673 212.896 107.152 213.319 106.534C213.759 105.915 213.987 105.329 214.003 104.776L215.858 107.754C215.598 108.422 215.24 109.113 214.784 109.83C214.345 110.546 213.783 111.221 213.1 111.856C212.416 112.474 211.594 112.987 210.634 113.394C209.673 113.785 208.534 113.98 207.216 113.98C205.539 113.98 204.017 113.646 202.65 112.979C201.299 112.295 200.225 111.359 199.428 110.171C198.646 108.967 198.256 107.6 198.256 106.07C198.256 104.686 198.516 103.457 199.037 102.383C199.558 101.309 200.323 100.406 201.332 99.6733C202.357 98.9246 203.635 98.3631 205.165 97.9887C206.695 97.5981 208.469 97.4028 210.487 97.4028H214.564ZM233.583 110.513L240.59 87.0756H248.134L237.514 117.471C237.286 118.138 236.976 118.855 236.586 119.62C236.211 120.385 235.699 121.109 235.048 121.792C234.413 122.492 233.607 123.062 232.631 123.501C231.67 123.941 230.49 124.161 229.091 124.161C228.423 124.161 227.878 124.12 227.455 124.039C227.032 123.957 226.527 123.843 225.941 123.697V118.545C226.12 118.545 226.308 118.545 226.503 118.545C226.698 118.562 226.885 118.57 227.064 118.57C227.992 118.57 228.749 118.464 229.335 118.252C229.921 118.041 230.393 117.715 230.751 117.276C231.109 116.853 231.394 116.299 231.605 115.616L233.583 110.513ZM230.653 87.0756L236.391 106.216L237.391 113.663L232.606 114.175L223.109 87.0756H230.653ZM278.285 84.0239L268.617 113.492H260.829L274.037 77.9448H278.993L278.285 84.0239ZM286.317 113.492L276.625 84.0239L275.844 77.9448H280.849L294.13 113.492H286.317ZM285.878 100.259V105.997H267.103V100.259H285.878ZM312.587 107.73V75.9917H319.667V113.492H313.295L312.587 107.73ZM295.888 100.601V100.088C295.888 98.0701 296.115 96.2391 296.571 94.5952C297.027 92.935 297.694 91.5109 298.573 90.3227C299.452 89.1346 300.534 88.215 301.82 87.5639C303.106 86.9129 304.571 86.5874 306.215 86.5874C307.761 86.5874 309.112 86.9129 310.267 87.5639C311.439 88.215 312.432 89.1427 313.246 90.3471C314.076 91.5353 314.743 92.9432 315.248 94.5708C315.752 96.1821 316.119 97.948 316.347 99.8686V100.992C316.119 102.831 315.752 104.54 315.248 106.119C314.743 107.697 314.076 109.081 313.246 110.269C312.432 111.441 311.439 112.352 310.267 113.003C309.096 113.654 307.728 113.98 306.166 113.98C304.522 113.98 303.057 113.646 301.771 112.979C300.502 112.312 299.428 111.376 298.549 110.171C297.686 108.967 297.027 107.551 296.571 105.923C296.115 104.296 295.888 102.522 295.888 100.601ZM302.919 100.088V100.601C302.919 101.692 303 102.709 303.163 103.653C303.342 104.597 303.627 105.435 304.017 106.167C304.424 106.884 304.945 107.445 305.58 107.852C306.231 108.243 307.02 108.438 307.948 108.438C309.153 108.438 310.145 108.169 310.927 107.632C311.708 107.079 312.302 106.322 312.709 105.362C313.132 104.401 313.376 103.295 313.441 102.041V98.8432C313.392 97.8178 313.246 96.8982 313.002 96.0844C312.774 95.2544 312.432 94.5463 311.976 93.9604C311.537 93.3745 310.984 92.9187 310.316 92.5932C309.665 92.2677 308.892 92.1049 307.997 92.1049C307.086 92.1049 306.304 92.3165 305.653 92.7397C305.002 93.1466 304.473 93.7081 304.066 94.4243C303.676 95.1404 303.383 95.9868 303.187 96.9633C303.008 97.9236 302.919 98.9653 302.919 100.088ZM334.144 108.365L340.004 87.0756H347.352L338.441 113.492H333.998L334.144 108.365ZM330.116 87.0756L336 108.389L336.122 113.492H331.654L322.743 87.0756H330.116ZM362.318 113.98C360.267 113.98 358.428 113.654 356.801 113.003C355.173 112.336 353.79 111.416 352.65 110.245C351.527 109.073 350.665 107.714 350.062 106.167C349.46 104.605 349.159 102.945 349.159 101.187V100.21C349.159 98.2085 349.444 96.3774 350.014 94.7172C350.583 93.0571 351.397 91.6167 352.455 90.396C353.529 89.1753 354.831 88.2394 356.361 87.5883C357.891 86.921 359.616 86.5874 361.537 86.5874C363.409 86.5874 365.069 86.8966 366.517 87.5151C367.966 88.1336 369.179 89.0125 370.155 90.1518C371.148 91.2911 371.897 92.6583 372.401 94.2534C372.906 95.8322 373.158 97.59 373.158 99.5268V102.457H352.162V97.769H366.249V97.2319C366.249 96.2553 366.07 95.3846 365.712 94.6196C365.37 93.8383 364.849 93.2199 364.149 92.7641C363.449 92.3084 362.554 92.0805 361.464 92.0805C360.536 92.0805 359.738 92.284 359.071 92.6909C358.404 93.0978 357.859 93.6674 357.435 94.3999C357.029 95.1323 356.719 95.9949 356.508 96.9878C356.312 97.9643 356.215 99.0385 356.215 100.21V101.187C356.215 102.245 356.361 103.221 356.654 104.117C356.963 105.012 357.395 105.785 357.948 106.436C358.518 107.087 359.201 107.592 359.999 107.95C360.813 108.308 361.732 108.487 362.758 108.487C364.027 108.487 365.207 108.243 366.298 107.754C367.405 107.25 368.357 106.493 369.154 105.484L372.572 109.195C372.019 109.992 371.262 110.757 370.302 111.49C369.358 112.222 368.218 112.824 366.884 113.296C365.549 113.752 364.027 113.98 362.318 113.98ZM384.047 92.7153V113.492H377.016V87.0756H383.607L384.047 92.7153ZM383.021 99.3559H381.117C381.117 97.4028 381.369 95.645 381.874 94.0825C382.378 92.5037 383.086 91.1609 383.998 90.0542C384.909 88.9311 385.992 88.0766 387.245 87.4907C388.515 86.8885 389.931 86.5874 391.493 86.5874C392.73 86.5874 393.861 86.7664 394.887 87.1245C395.912 87.4825 396.791 88.0522 397.523 88.8335C398.272 89.6147 398.842 90.6482 399.232 91.934C399.639 93.2199 399.843 94.7905 399.843 96.646V113.492H392.763V96.6215C392.763 95.4497 392.6 94.5382 392.274 93.8872C391.949 93.2361 391.469 92.7804 390.834 92.52C390.215 92.2433 389.45 92.1049 388.539 92.1049C387.595 92.1049 386.773 92.2921 386.073 92.6665C385.39 93.0408 384.82 93.5616 384.364 94.229C383.925 94.88 383.591 95.645 383.363 96.5239C383.135 97.4028 383.021 98.3468 383.021 99.3559ZM418.129 87.0756V92.0561H402.748V87.0756H418.129ZM406.557 80.5571H413.588V105.533C413.588 106.298 413.685 106.884 413.881 107.29C414.092 107.697 414.402 107.982 414.808 108.145C415.215 108.291 415.728 108.365 416.347 108.365C416.786 108.365 417.177 108.348 417.518 108.316C417.877 108.267 418.178 108.218 418.422 108.169L418.446 113.345C417.844 113.54 417.193 113.695 416.493 113.809C415.793 113.923 415.02 113.98 414.174 113.98C412.627 113.98 411.277 113.728 410.121 113.223C408.982 112.702 408.103 111.872 407.484 110.733C406.866 109.594 406.557 108.096 406.557 106.241V80.5571ZM429.555 87.0756V113.492H422.499V87.0756H429.555ZM422.059 80.1909C422.059 79.1655 422.418 78.3191 423.134 77.6518C423.85 76.9845 424.81 76.6508 426.015 76.6508C427.203 76.6508 428.155 76.9845 428.871 77.6518C429.603 78.3191 429.97 79.1655 429.97 80.1909C429.97 81.2163 429.603 82.0626 428.871 82.7299C428.155 83.3973 427.203 83.7309 426.015 83.7309C424.81 83.7309 423.85 83.3973 423.134 82.7299C422.418 82.0626 422.059 81.2163 422.059 80.1909ZM456.41 95.059H453.114C452.398 93.1873 451.657 91.5597 450.892 90.1762C450.144 88.7928 449.509 87.507 448.988 86.3188C448.467 85.1144 448.207 83.8855 448.207 82.6323C448.207 81.6394 448.427 80.7117 448.866 79.8491C449.306 78.9702 449.948 78.2052 450.795 77.5542C451.657 76.8868 452.715 76.3741 453.969 76.0161C455.238 75.6417 456.703 75.4546 458.363 75.4546C460.43 75.4546 462.172 75.715 463.588 76.2358C465.004 76.7566 466.135 77.4646 466.981 78.3598C467.844 79.255 468.462 80.2723 468.837 81.4116C469.227 82.5346 469.423 83.6984 469.423 84.9028H462.367C462.367 83.8611 462.172 83.0148 461.781 82.3637C461.391 81.6964 460.878 81.2163 460.243 80.9233C459.608 80.6141 458.917 80.4594 458.168 80.4594C456.784 80.4594 455.808 80.8501 455.238 81.6313C454.669 82.3963 454.384 83.2508 454.384 84.1948C454.384 85.1551 454.481 86.0421 454.677 86.8559C454.888 87.6697 455.124 88.4754 455.385 89.2729C455.661 90.0704 455.897 90.9331 456.093 91.8608C456.304 92.7885 456.41 93.8546 456.41 95.059ZM473.939 87.0756V92.0561H458.607V87.0756H473.939ZM462.367 84.9028H469.423V105.313C469.423 106.094 469.52 106.713 469.716 107.168C469.911 107.608 470.212 107.917 470.619 108.096C471.026 108.275 471.539 108.365 472.157 108.365C472.597 108.365 472.987 108.348 473.329 108.316C473.671 108.267 473.972 108.218 474.232 108.169V113.345C473.646 113.54 473.003 113.695 472.304 113.809C471.604 113.923 470.822 113.98 469.96 113.98C468.414 113.98 467.071 113.687 465.932 113.101C464.792 112.515 463.913 111.596 463.295 110.342C462.676 109.073 462.367 107.404 462.367 105.337V84.9028ZM449.647 106.192C449.647 105.687 449.501 105.232 449.208 104.825C448.915 104.418 448.37 104.043 447.572 103.702C446.791 103.344 445.66 103.018 444.179 102.725C442.844 102.432 441.599 102.066 440.443 101.626C439.304 101.171 438.311 100.625 437.465 99.9907C436.635 99.3559 435.984 98.6072 435.512 97.7446C435.04 96.8657 434.804 95.8647 434.804 94.7417C434.804 93.6349 435.04 92.5932 435.512 91.6167C436 90.6401 436.692 89.7775 437.587 89.0288C438.498 88.2638 439.605 87.6697 440.907 87.2465C442.225 86.8071 443.707 86.5874 445.35 86.5874C447.645 86.5874 449.615 86.9536 451.259 87.686C452.919 88.4184 454.188 89.4275 455.067 90.7133C455.962 91.9829 456.41 93.4314 456.41 95.059H449.379C449.379 94.3755 449.232 93.7651 448.939 93.228C448.663 92.6746 448.223 92.2433 447.621 91.934C447.035 91.6085 446.27 91.4458 445.326 91.4458C444.545 91.4458 443.869 91.5841 443.3 91.8608C442.73 92.1212 442.291 92.4793 441.981 92.935C441.688 93.3745 441.542 93.8628 441.542 94.3999C441.542 94.8068 441.623 95.173 441.786 95.4985C441.965 95.8077 442.25 96.0926 442.641 96.353C443.031 96.6134 443.536 96.8575 444.154 97.0854C444.789 97.297 445.57 97.4923 446.498 97.6713C448.402 98.062 450.103 98.5747 451.6 99.2094C453.098 99.8279 454.286 100.674 455.165 101.748C456.044 102.806 456.483 104.198 456.483 105.923C456.483 107.095 456.223 108.169 455.702 109.146C455.181 110.123 454.433 110.977 453.456 111.709C452.479 112.426 451.308 112.987 449.94 113.394C448.589 113.785 447.068 113.98 445.375 113.98C442.917 113.98 440.834 113.54 439.125 112.662C437.432 111.783 436.146 110.668 435.267 109.317C434.405 107.95 433.974 106.55 433.974 105.118H440.639C440.671 106.078 440.915 106.851 441.371 107.437C441.843 108.023 442.437 108.446 443.153 108.707C443.886 108.967 444.675 109.097 445.521 109.097C446.433 109.097 447.19 108.975 447.792 108.731C448.394 108.471 448.85 108.129 449.159 107.706C449.485 107.266 449.647 106.762 449.647 106.192ZM511.391 101.7H518.69C518.544 104.092 517.885 106.216 516.713 108.072C515.557 109.927 513.938 111.376 511.854 112.417C509.787 113.459 507.297 113.98 504.384 113.98C502.105 113.98 500.062 113.589 498.256 112.808C496.449 112.011 494.903 110.871 493.617 109.39C492.348 107.909 491.379 106.119 490.712 104.019C490.044 101.919 489.711 99.5675 489.711 96.9633V94.4975C489.711 91.8934 490.053 89.5415 490.736 87.4419C491.436 85.326 492.429 83.5275 493.715 82.0463C495.017 80.5652 496.571 79.4259 498.378 78.6284C500.184 77.8309 502.203 77.4321 504.433 77.4321C507.395 77.4321 509.893 77.9692 511.928 79.0434C513.978 80.1176 515.565 81.5988 516.688 83.4868C517.828 85.3748 518.511 87.5232 518.739 89.9321H511.415C511.334 88.4998 511.049 87.2872 510.56 86.2944C510.072 85.2853 509.332 84.5284 508.339 84.0239C507.362 83.5031 506.06 83.2426 504.433 83.2426C503.212 83.2426 502.146 83.4705 501.234 83.9262C500.323 84.382 499.558 85.0737 498.939 86.0014C498.321 86.9292 497.857 88.101 497.548 89.5171C497.255 90.9168 497.108 92.5607 497.108 94.4487V96.9633C497.108 98.8025 497.247 100.422 497.523 101.822C497.8 103.205 498.223 104.377 498.793 105.337C499.379 106.281 500.127 106.998 501.039 107.486C501.967 107.958 503.082 108.194 504.384 108.194C505.914 108.194 507.175 107.95 508.168 107.461C509.161 106.973 509.918 106.249 510.438 105.289C510.975 104.328 511.293 103.132 511.391 101.7ZM529.921 75.9917V113.492H522.89V75.9917H529.921ZM528.92 99.3559H526.991C527.007 97.5167 527.252 95.824 527.724 94.2778C528.196 92.7153 528.871 91.3644 529.75 90.2251C530.629 89.0695 531.679 88.1743 532.899 87.5395C534.136 86.9047 535.503 86.5874 537.001 86.5874C538.303 86.5874 539.483 86.7745 540.541 87.1489C541.615 87.507 542.535 88.0929 543.3 88.9067C544.081 89.7042 544.683 90.754 545.106 92.0561C545.53 93.3582 545.741 94.937 545.741 96.7924V113.492H538.661V96.7436C538.661 95.5717 538.49 94.6521 538.148 93.9848C537.823 93.3012 537.343 92.8211 536.708 92.5444C536.089 92.2514 535.324 92.1049 534.413 92.1049C533.404 92.1049 532.541 92.2921 531.825 92.6665C531.125 93.0408 530.564 93.5616 530.141 94.229C529.717 94.88 529.408 95.645 529.213 96.5239C529.017 97.4028 528.92 98.3468 528.92 99.3559ZM566.713 107.168V87.0756H573.744V113.492H567.128L566.713 107.168ZM567.494 101.748L569.569 101.7C569.569 103.457 569.366 105.093 568.959 106.607C568.552 108.104 567.942 109.406 567.128 110.513C566.314 111.604 565.289 112.458 564.052 113.077C562.815 113.679 561.358 113.98 559.682 113.98C558.396 113.98 557.208 113.801 556.117 113.443C555.043 113.068 554.115 112.491 553.334 111.709C552.569 110.912 551.967 109.895 551.527 108.658C551.104 107.404 550.892 105.899 550.892 104.141V87.0756H557.924V104.19C557.924 104.971 558.013 105.63 558.192 106.167C558.388 106.705 558.656 107.144 558.998 107.486C559.34 107.828 559.738 108.072 560.194 108.218C560.666 108.365 561.187 108.438 561.757 108.438C563.205 108.438 564.345 108.145 565.175 107.559C566.021 106.973 566.615 106.176 566.957 105.166C567.315 104.141 567.494 103.002 567.494 101.748ZM586.146 92.8374V113.492H579.115V87.0756H585.731L586.146 92.8374ZM594.105 86.9047L593.983 93.4233C593.641 93.3745 593.226 93.3338 592.738 93.3012C592.266 93.2524 591.835 93.228 591.444 93.228C590.451 93.228 589.589 93.3582 588.856 93.6186C588.14 93.8628 587.538 94.229 587.05 94.7172C586.578 95.2055 586.22 95.7996 585.975 96.4995C585.748 97.1993 585.617 97.9969 585.585 98.8921L584.169 98.4526C584.169 96.7436 584.34 95.173 584.682 93.7407C585.023 92.2921 585.52 91.0307 586.171 89.9565C586.838 88.8823 587.652 88.0522 588.612 87.4663C589.572 86.8803 590.671 86.5874 591.908 86.5874C592.299 86.5874 592.697 86.6199 593.104 86.685C593.511 86.7338 593.845 86.8071 594.105 86.9047ZM607.85 108.487C608.713 108.487 609.478 108.324 610.145 107.998C610.813 107.657 611.334 107.185 611.708 106.582C612.099 105.964 612.302 105.24 612.318 104.41H618.934C618.918 106.265 618.422 107.917 617.445 109.366C616.469 110.798 615.158 111.929 613.515 112.759C611.871 113.573 610.031 113.98 607.997 113.98C605.946 113.98 604.156 113.638 602.626 112.955C601.112 112.271 599.851 111.327 598.842 110.123C597.833 108.902 597.076 107.486 596.571 105.874C596.067 104.247 595.814 102.505 595.814 100.65V99.9419C595.814 98.0701 596.067 96.3286 596.571 94.7172C597.076 93.0896 597.833 91.6736 598.842 90.4692C599.851 89.2485 601.112 88.2963 602.626 87.6128C604.14 86.9292 605.914 86.5874 607.948 86.5874C610.113 86.5874 612.009 87.0024 613.637 87.8325C615.28 88.6626 616.566 89.8507 617.494 91.3969C618.438 92.9269 618.918 94.7417 618.934 96.8413H612.318C612.302 95.9624 612.115 95.1648 611.757 94.4487C611.415 93.7325 610.91 93.1629 610.243 92.7397C609.592 92.3003 608.786 92.0805 607.826 92.0805C606.801 92.0805 605.962 92.3003 605.311 92.7397C604.66 93.1629 604.156 93.7488 603.798 94.4975C603.44 95.2299 603.187 96.0682 603.041 97.0122C602.911 97.9399 602.846 98.9165 602.846 99.9419V100.65C602.846 101.675 602.911 102.66 603.041 103.604C603.171 104.548 603.415 105.386 603.773 106.119C604.148 106.851 604.66 107.429 605.311 107.852C605.962 108.275 606.809 108.487 607.85 108.487ZM629.872 75.9917V113.492H622.841V75.9917H629.872ZM628.871 99.3559H626.942C626.959 97.5167 627.203 95.824 627.675 94.2778C628.147 92.7153 628.822 91.3644 629.701 90.2251C630.58 89.0695 631.63 88.1743 632.85 87.5395C634.087 86.9047 635.455 86.5874 636.952 86.5874C638.254 86.5874 639.434 86.7745 640.492 87.1489C641.566 87.507 642.486 88.0929 643.251 88.9067C644.032 89.7042 644.634 90.754 645.058 92.0561C645.481 93.3582 645.692 94.937 645.692 96.7924V113.492H638.612V96.7436C638.612 95.5717 638.441 94.6521 638.1 93.9848C637.774 93.3012 637.294 92.8211 636.659 92.5444C636.041 92.2514 635.276 92.1049 634.364 92.1049C633.355 92.1049 632.492 92.2921 631.776 92.6665C631.076 93.0408 630.515 93.5616 630.092 94.229C629.669 94.88 629.359 95.645 629.164 96.5239C628.969 97.4028 628.871 98.3468 628.871 99.3559Z" fill="white"/>
</svg>
